<svg id="Capa_1" data-name="Capa 1" xmlns="http://www.w3.org/2000/svg" viewBox="0 0 1170.24 1170.24"><defs><style>.cls-1{fill:#203a75;}.cls-2{fill:#f8e9b8;}.cls-3{fill:#f9eab8;}.cls-4{fill:#b9c0cf;}.cls-5{fill:#5971a2;}.cls-6{fill:#f4c84c;}</style></defs><path class="cls-1" d="M998.86,171.38C888.35,60.86,741.41,0,585.12,0S281.9,60.86,171.38,171.38C61.87,280.88,1.15,426.15.05,580.84H0V600.7H.21c2.91,112,37.12,218.6,98.46,309.87a18.39,18.39,0,0,0-1.41,3l4.53,1.51a591.2,591.2,0,0,0,69.59,83.73c110.52,110.52,257.45,171.38,413.74,171.38s303.23-60.86,413.74-171.38,171.38-257.45,171.38-413.74S1109.38,281.89,998.86,171.38Zm-626,429.32q1,42.49,5.54,85.4a1110.87,1110.87,0,0,0,22.91,134.59c-72.38,7.94-127.57,17.65-169.63,27.79q-57.74-121.76-60-247.78ZM171.68,580.84c0-1.86.07-3.73.12-5.6,2.52-91.13,27.18-173.48,58.29-242.17,43,10.79,97.78,20.21,166.79,25.31q-3.27,14.26-6.24,29.32a977.4,977.4,0,0,0-18.07,193.14ZM393,600.7h192.1V580.84H392.69a952.38,952.38,0,0,1,17.23-188.29q3.3-16.92,7.06-32.84c29.11,1.72,60.57,2.69,94.61,2.69q34.95,0,73.58-1.41V816.77l-.47-9.92c-62,2.95-116,7-163.25,11.72A1076.49,1076.49,0,0,1,393,600.7ZM584.8,341.13c-61.54,2.32-115.62,1.58-163-1.15,27.73-107.34,67-176.84,79.59-197.32A202.71,202.71,0,0,0,565.81,153c6.27,0,12.75-.32,19.36-.9Zm.37,485.58V1043.8c-32.55-1-59.78,3.59-82.26,10.84-34.69-75.92-59.52-148.36-76.72-216.55C472,833.51,524.65,829.6,585.17,826.71Zm0-806.85h0l-.91,112.42c-52.8,4.86-100.28-10.42-141.15-45.43a228.73,228.73,0,0,1-35.46-38.42A563.06,563.06,0,0,1,585.12,19.86ZM408.92,81.31a243.43,243.43,0,0,0,20.68,20.11,218.14,218.14,0,0,0,53,33.89c-15.19,25.1-53.67,95.43-80.95,203.35-68.95-5-122.51-14.24-162.86-24.11a804.86,804.86,0,0,1,58-99.94C344.09,145,391.26,98,408.92,81.31Zm-20.79-26c2.23,3.23,4.86,6.86,7.93,10.81-17.79,16.6-65.94,64.27-115.33,136.8a820.29,820.29,0,0,0-61.51,106.55c-5.25-1.46-10.26-2.92-15-4.36-45-13.8-72.32-28.38-86.58-37.45A568.32,568.32,0,0,1,388.13,55.29ZM106.74,284.34c17,11,49.5,28.1,103.92,43.53C179.27,398,154.55,481.76,152,574.5c-.06,2.12-.09,4.23-.13,6.34H19.91A561.79,561.79,0,0,1,106.74,284.34ZM20.08,600.7H151.8q2.13,128.5,60.25,252.78c-55.47,15-84.25,30.39-99.15,42A561.85,561.85,0,0,1,20.08,600.7Zm389.26,521.67A567.79,567.79,0,0,1,124.06,911.81c8.28-6.63,24.56-16.68,55.51-27.63,11.27-4,24.9-8.21,41.29-12.52q64.47,128.4,188.54,250.62ZM240.66,866.76c40-9.36,93.66-18.77,165.36-26.57C424.55,914,450.71,988,484.28,1061.67a182.32,182.32,0,0,0-43.66,26.65,170.46,170.46,0,0,0-18.89,18.23Q303.27,989.59,240.66,866.76Zm188.71,261.79a149.41,149.41,0,0,1,24.72-25.6c33.89-27.7,77.93-40.91,130.78-39.3l.3,86.74h0A563.62,563.62,0,0,1,429.37,1128.55Z"/><path class="cls-2" d="M169.48,857.82c-1.79-2.38-3.3-4.52-3.75-7.59a73.76,73.76,0,0,0-6-19.58c-2.59-5.75-6.53-9.24-13.09-6.34-7.52,3.32-13.7.63-19.72-3.54-3-2.1-6.12-4.15-9-6.51-4.79-4-9.09-4.6-13.32.82-2.76,3.54-5.77,7-9.78,9.13a8.55,8.55,0,0,1-10.34-1.15c-3.23-3.07-.17-5.72,1.51-8.27,1.31-2,2.74-3.88,4-5.87s1.46-3.71.18-4.35a12.72,12.72,0,0,0-3.87,5.4,92,92,0,0,0-5.74,18.63,29.55,29.55,0,0,1-2.36,6.17,566.4,566.4,0,0,0,34.62,60.68c11.3-8.78,30.65-19.76,63.5-31.09A29.46,29.46,0,0,1,169.48,857.82Z"/><path class="cls-2" d="M297.63,705.13c-8.09,8-16.11,16-24.3,23.87-2.54,2.44-3.94,4.32-1.6,8,3.86,6-.1,8.31-5.93,10a21.23,21.23,0,0,1,.05-4.29c.57-2.44,0-4.48-2.49-4.9s-3.86,1.65-4.26,3.81c-1.14,6.23-2.2,12.47-3,18.74-.5,4.13-1.82,7.44-5.19,10.19-6,4.89-9.62,11.08-9.33,19.18.07,2.08.08,4.59-1,6.2-6.54,10-9.83,20.41-6.94,32.63.91,3.83-3.49,5.9-7.26,7-.18.05-.26.11-.44.16,1.91,4.26,3.66,8.52,5.68,12.77,42.06-10.14,97.25-19.85,169.63-27.79A1110.87,1110.87,0,0,1,378.4,686.1c-.39-3.64-.58-7.27-.93-10.91-24.88,9.62-49.35,20.34-75.3,27A9.88,9.88,0,0,0,297.63,705.13Z"/><path class="cls-2" d="M267.92,371c9.38,4.8,20.51,7.39,28.78,15.05,2.91,2.7,8,1.36,12.2.09,3.94-1.19,6.59-1.35,7.33,4.59.7,5.7,6.18,8.55,11.83,9.06,4.9.44,6.29,2.87,6,7.29-.93,12.47,7,21.28,19.29,19.22,8.25-1.38,14.35.88,20.52,5.06a18.92,18.92,0,0,0,8.78,3.53q3.43-23.75,8-47.18,3-15.06,6.24-29.32c-69-5.1-123.82-14.52-166.79-25.31-1.46,3.22-2.82,6.61-4.25,9.9,3.88,5.4,9.83,8.76,15,10.4C251.7,356.78,258.15,366,267.92,371Z"/><path class="cls-2" d="M219.22,309.45a2.8,2.8,0,0,1,.15-.3l-1.1,0Z"/><path class="cls-2" d="M212.05,853.48c-.06-.12-.1-.24-.16-.36,0,.16,0,.26-.06.42A1.8,1.8,0,0,0,212.05,853.48Z"/><path class="cls-2" d="M501.43,142.66c-12.55,20.48-51.86,90-79.59,197.32,47.34,2.73,101.42,3.47,163,1.15l.37-189c-6.61.58-13.09.9-19.36.9A202.71,202.71,0,0,1,501.43,142.66Z"/><path class="cls-2" d="M431.9,130.73l-11.4,25.46-12.79,10v14.34s-14.53,20.07-15.94,25.81-8.27,4.91-11.32,16.07-11.63,22.63-15.94,26.94-7.18,4.3-14.34,10-18.64,8.6-25.8,12.91-14.34,5.76-25.81,10-28.68-5.73-34.42,0c-2.25,2.25-6.33,3-10.64,3.5q-7.47,13.88-14.72,28.69c40.35,9.87,93.91,19.12,162.86,24.11,27.28-107.92,65.76-178.25,80.95-203.35a208.47,208.47,0,0,1-25.3-13.65l-11,9.07Z"/><path class="cls-2" d="M454.09,1103a149.41,149.41,0,0,0-24.72,25.6,563.62,563.62,0,0,0,155.75,21.84h0l-.3-86.74C532,1062,488,1075.25,454.09,1103Z"/><path class="cls-3" d="M179.57,884.18c-30.95,11-47.23,21-55.51,27.63a567.79,567.79,0,0,0,285.28,210.56l.06-.09q-123.94-122-188.54-250.62C204.47,876,190.84,880.19,179.57,884.18Z"/><path class="cls-2" d="M470.07,78.77V96l-2.47,8.71c35,22.09,74.06,31.51,116.66,27.59l.91-112.42h0a564.37,564.37,0,0,0-115,11.83V78.77Z"/><path class="cls-2" d="M502.91,1054.64c22.48-7.25,49.71-11.8,82.26-10.84V826.71c-60.52,2.89-113.18,6.8-159,11.38C443.39,906.28,468.22,978.72,502.91,1054.64Z"/><path class="cls-2" d="M440.62,1088.32a182.32,182.32,0,0,1,43.66-26.65C450.71,988,424.55,914,406,840.19c-71.7,7.8-125.37,17.21-165.36,26.57q62.5,122.6,181.07,239.79A170.46,170.46,0,0,1,440.62,1088.32Z"/><path class="cls-4" d="M470.07,13l-6.21.92c-7.11,1.77-14.66,3.82-22.4,6q14.18-3.61,28.61-6.51Z"/><path class="cls-4" d="M106.74,284.34a561.79,561.79,0,0,0-86.83,296.5H52.42a20.65,20.65,0,0,1,2.73-4.61,17.14,17.14,0,0,0,2.39-4.09,10.77,10.77,0,0,0-.33-9.85,20.93,20.93,0,0,0-3.29-4.43,31.41,31.41,0,0,1-6-10.13c-3.53-8.93,2-16.49,11.42-16.19,7.8.25,11.16.27,13.45-1.93A12.74,12.74,0,0,1,74,528.09c1.17-1.87,2.18-4.6,3.69-8.82a26.11,26.11,0,0,1,3.64-7c4.26-5.64,4.83-11.29,1-17.34-2.59-4.13-1.92-8.09,1.19-11.55,5.52-6.14,9.71-13,17.54-17.6,11.3-6.68,18.9-17.28,17.28-32.06-.3-2.73-1.8-6.44,2.28-8.37.32-.15.24-.41.4-.61a2.16,2.16,0,0,0-.13-2.7c-.09-.12-.14-.24-.23-.36-2.55-3.64-3.76-7-.6-11.27.12-.15.13-.28.25-.43a3.59,3.59,0,0,0,.27-3.42,6.12,6.12,0,0,0-3.43-3.72c-5.07-2-5.61-6.63-4.54-10.4s4.7-5.88,9.39-5.52c5.33.41,9.31-2,13.09-4.88,3.07-2.33,6-4.93,9.42-6.6,1.3-.64,2.49-1.3,3.71-1.82a8.6,8.6,0,0,1,4.88-.75c3.5.54,7.47.24,9.8-2.12,5.52-5.6,12.16-5.63,19.06-5.22a12.32,12.32,0,0,0,10-3.45,13.48,13.48,0,0,1,5.58-3.11c4.19-10.63,8.51-21.06,13-31.14C156.24,312.44,123.75,295.3,106.74,284.34Z"/><path class="cls-4" d="M396.06,66.1c-3.07-3.95-5.7-7.58-7.93-10.81A568.32,568.32,0,0,0,117.68,267.64c14.26,9.07,41.59,23.65,86.58,37.45,4.41,1.35,9.12,2.72,14,4.08l1.1,0A821.47,821.47,0,0,1,280.73,202.9C330.12,130.37,378.27,82.7,396.06,66.1Z"/><path class="cls-4" d="M443.11,86.85a207.17,207.17,0,0,0,24.49,17.84L470.07,96V31.69a560.84,560.84,0,0,0-62.42,16.74A228.73,228.73,0,0,0,443.11,86.85Z"/><path class="cls-4" d="M408.92,81.31C391.26,98,344.09,145,296.78,214.61a812.73,812.73,0,0,0-43.28,71.25c4.31-.49,8.39-1.25,10.64-3.5,5.74-5.73,22.94,4.29,34.42,0s18.65-5.73,25.81-10,18.63-7.15,25.8-12.91,10.05-5.72,14.34-10,12.9-15.77,15.94-26.94,9.88-10.35,11.32-16.07,15.94-25.81,15.94-25.81V166.23l12.79-10,11.4-25.46h14.35l11-9.07a225.13,225.13,0,0,1-27.69-20.24A243.43,243.43,0,0,1,408.92,81.31Z"/><path class="cls-4" d="M143,665.74a7.31,7.31,0,0,0-1.46-2.83c-9.68-11.52-5.47-24.48-5.31-36.9-5.33,1.39-7.51,4.71-5.39,11.54,2.59,8.36,1.74,16.28.27,24.75-1,5.69-4.83,6.54-8.12,8.3s-7.46-2.74-6.21-6.88c1.35-4.52,3.24-8.87,4.9-13.3a10.28,10.28,0,0,1-1-1.14,9,9,0,0,0-5.12,6.67c-2.09,9.12-10.34,14.26-14.13,22.29-1,2-2.51,2.19-4.36,1.73a18.13,18.13,0,0,1-1.74-.55c-.84-.31-1.58-.75-2.39-1.11A47.86,47.86,0,0,1,72.21,661c-3.07-4.5-6.6-7-12-7.91a31.78,31.78,0,0,1-17.68-9.85c-1.76-1.86-4.54-4.69.67-6.31,16.93-5.26,22.43-18.35,14.5-34.45-.29-.6-.63-1.17-.89-1.79H20.08a561,561,0,0,0,58.2,234.07,29.55,29.55,0,0,0,2.36-6.17A92,92,0,0,1,86.38,810a12.72,12.72,0,0,1,3.87-5.4,4.24,4.24,0,0,0-2.76-.25c-4.73.79-5-2.47-5.95-5.46-1.58-4.86-1.61-9.75,2.27-13.23a7.46,7.46,0,0,1,9.48-.69c5.71,4.27,7.33-2.39,10.84-3.86,2.81-1.18,4.64-3.27,3.07-6.9-2.44-5.66-2.73-11.59-2.61-17.77.14-7.44-1.33-14.78-7.71-19.93-1-.82-2.47-1.61-2-3.06.62-1.85,2.42-1.51,4-1.49,6,.06,11.53-.36,17.22-3.85,11-6.73,13.4-18,16-28.53a132,132,0,0,1,7.51-21.67c.72-1.63,1.28-3.31,2.09-4.9C143.15,670.27,143.65,667.93,143,665.74Zm-16.38,19.69q-3.94,2.6-7.94,5.14c-3.3,2.12-7.13,2.76-4.39,9.15,2,4.67-4.2,6.57-7.85,7.53-5.74-.47-8.79-2.12-7-8,1.23-4.24,1.47-8.77,2.68-13,2.89-10.17,16.35-14.35,24.62-8C130.27,680.9,130.27,683.06,126.66,685.43Z"/><path class="cls-5" d="M487.92,580.84a90.28,90.28,0,0,0,12.29-37.42c.48-5.26,2.3-8.69,8.91-7.55,4.81.82,7.77-.49,5.82-7.12-2.13-7.27-5.05-14.78-.86-22.88A8,8,0,0,0,510,495c-7-2.93-10.22-7.77-11.8-15-1.08-5-5.25-8.35-9.88-10.82-1.35-.72-3.95-.63-3.39-3.45a5,5,0,0,1,6.54-.31c4.66,3.41,9.67,1.38,14.52,1.41,1.33,0,3.57.25,3.92-1.73.41-2.32-1.62-3.5-3.39-3.56-6.48-.24-11.3-3.69-16.16-7.39a8.33,8.33,0,0,0-5.21-1.59c-10.93.74-18.33-5.16-25-12.72-2.09-2.38-4.46-4.5-6.5-6.91-8.27-9.69-19.19-11.2-31-10.37-2.19.15-2.91,1.05-3.7,3.11-3.22,8.33-9,11.17-16.24,8.81a967.7,967.7,0,0,0-10.07,146.34Z"/><path class="cls-5" d="M171.67,600.7c1.36,79.48,19.68,157.93,54.33,235,.18-.05.26-.11.44-.16,3.77-1.15,8.17-3.22,7.26-7-2.89-12.22.4-22.59,6.94-32.63,1-1.61,1-4.12,1-6.2-.29-8.1,3.36-14.29,9.33-19.18,3.37-2.75,4.69-6.06,5.19-10.19.78-6.27,1.84-12.51,3-18.74.4-2.16,1.75-4.22,4.26-3.81s3.06,2.46,2.49,4.9a21.23,21.23,0,0,0-.05,4.29c5.83-1.67,9.79-4,5.93-10-2.34-3.64-.94-5.52,1.6-8,8.19-7.86,16.21-15.9,24.3-23.87a9.88,9.88,0,0,1,4.54-3c25.95-6.65,50.42-17.37,75.3-27-2.39-24.92-4-49.77-4.61-74.49Z"/><path class="cls-5" d="M453.07,623.12c7.25-7.29,14.33-14.67,20.8-22.42H393c.55,21.47,1.89,43.77,4,66.71,12.58-5.52,24.34-12.35,34.23-22.47C438.4,637.58,445.82,630.43,453.07,623.12Z"/><path class="cls-5" d="M171.68,580.84H372.57a988.21,988.21,0,0,1,10-146,18.92,18.92,0,0,1-8.78-3.53c-6.17-4.18-12.27-6.44-20.52-5.06-12.32,2.06-20.22-6.75-19.29-19.22.33-4.42-1.06-6.85-6-7.29-5.65-.51-11.13-3.36-11.83-9.06-.74-5.94-3.39-5.78-7.33-4.59-4.18,1.27-9.29,2.61-12.2-.09-8.27-7.66-19.4-10.25-28.78-15.05-9.77-5-16.22-14.21-27.05-17.62-5.2-1.64-11.15-5-15-10.4-29,66.68-51.64,145.41-54,232.27C171.75,577.11,171.72,579,171.68,580.84Z"/><path class="cls-5" d="M192.06,362.12a12.32,12.32,0,0,1-10,3.45c-6.9-.41-13.54-.38-19.06,5.22-2.33,2.36-6.3,2.66-9.8,2.12a8.6,8.6,0,0,0-4.88.75c-1.22.52-2.41,1.18-3.71,1.82-3.4,1.67-6.35,4.27-9.42,6.6-3.78,2.86-7.76,5.29-13.09,4.88-4.69-.36-8.33,1.78-9.39,5.52s-.53,8.36,4.54,10.4a6.12,6.12,0,0,1,3.43,3.72,3.59,3.59,0,0,1-.27,3.42c-.12.15-.13.28-.25.43-3.16,4.29-1.95,7.63.6,11.27.09.12.14.24.23.36a2.16,2.16,0,0,1,.13,2.7c-.16.2-.08.46-.4.61-4.08,1.93-2.58,5.64-2.28,8.37,1.62,14.78-6,25.38-17.28,32.06-7.83,4.64-12,11.46-17.54,17.6-3.11,3.46-3.78,7.42-1.19,11.55,3.8,6,3.23,11.7-1,17.34a26.11,26.11,0,0,0-3.64,7c-1.51,4.22-2.52,7-3.69,8.82a12.74,12.74,0,0,0-1.24,1.52c-2.29,2.2-5.65,2.18-13.45,1.93-9.45-.3-15,7.26-11.42,16.19a31.41,31.41,0,0,0,6,10.13,20.93,20.93,0,0,1,3.29,4.43,10.77,10.77,0,0,1,.33,9.85,17.14,17.14,0,0,1-2.39,4.09,20.65,20.65,0,0,0-2.73,4.61h99.4c0-2.11.07-4.22.13-6.34C154,500.05,170.5,431.51,193.1,371c1.51-4,3-8.08,4.54-12A13.48,13.48,0,0,0,192.06,362.12Z"/><path class="cls-5" d="M106.48,707.25c3.65-1,9.86-2.86,7.85-7.53-2.74-6.39,1.09-7,4.39-9.15q4-2.55,7.94-5.14c3.61-2.37,3.61-4.53.07-7.24-8.27-6.34-21.73-2.16-24.62,8-1.21,4.24-1.45,8.77-2.68,13C97.69,705.13,100.74,706.78,106.48,707.25Z"/><path class="cls-5" d="M120.67,649.28a10.28,10.28,0,0,0,1,1.14l.72-1.43Z"/><path class="cls-6" d="M937,834c-20.48,2.59-29.6-4.13-32.82-24.81-2.58-16.56-5-33.19-2.85-50,.6-4.74,1.07-9.55,4.7-13.15,2.38-2.36,1.24-5.22,1.28-7.83.14-9,2.64-19.29-.78-26.78-3.26-7.15-14.36-8.74-21.71-13.32-7.87-4.9-15.79-9.71-23.11-15.44a123.78,123.78,0,0,1-20.08-19.16c3.05,14.07,10.41,25.24,22.63,33a63.76,63.76,0,0,1,19.87,20.2c2.8,4.46,4.69,9.29,3.76,14.9-.88,5.34-3.35,8.46-9,9.41-10.71,1.8-21.18,4.36-27.88,14.25a4.58,4.58,0,0,1-3.22,1.52C828,757.49,808.2,759,788.5,756c-13.77-2.13-14.37-3.64-9-16.39,4.86-11.45,12-21.3,23.53-30.56-29.71,6.8-57.6,13.8-81-12.38.26,4.6.64,8.14.63,11.68,0,12-5.54,18.38-15.26,18-12.93-.49-23.64-10.72-22.31-21.57,1.24-10.19,7.31-17.93,13.72-25.36,3.46-4,6.68-8.11,8.81-13,2.21-5.06,2.39-10-2.51-13.47-4.38-3.15-8.63-3.64-13.56.3-10.36,8.29-21.27,15.88-32,23.72a30.65,30.65,0,0,1-5.69,3.54c-9.68,4.17-17.74.53-16.42-9.46,2.18-16.54-5.45-30.08-9.57-44.7-3.78-13.42-5.43-26.61-3.66-40.73,1.55-12.32-.16-25-.21-37.58-.13-37.85,1.23-75.6,6.93-113.13,2.1-13.82,2.74-27.88,3.51-41.86.6-10.93,3-20.85,8.92-30.41,10.68-17.32,21.78-34.2,35.31-49.47,3.79-4.28,5.15-3.21,6.94,1.11,2,4.85,4,9.73,6.45,14.37,1.69,3.23,1.81,5.92,0,9.15a33.89,33.89,0,0,0-3,8.5c-2.29,9.77,2.52,16.45,12.55,17a75.55,75.55,0,0,0,37.17-7.61q22.71-10.9,45-22.57c4.1-2.13,6.85-2.16,10.49,1.1,13.65,12.21,28,23.57,45.27,30.4a69,69,0,0,0,12.11,3.94c18.39,3.55,30.93-3,38.66-21.63,2.75-6.6,6-9.76,12.93-9.28,11.88.82,19.78-4.4,27.37-13.8,10.93-13.55,22.69-12.29,34,.83,3.67,4.25,4.24,9.06,3.54,14-1.11,7.91,2.79,11.64,9.8,13.33,1.22.3,2.44,1,3.63.91,11.7-.69,14.14,7.31,15.65,16.36,4.91,29.31,1,57.23-15.65,82.08-6.11,9.12-7.86,17.85-6.64,28,.54,4.46,1.73,9,1.2,13.4-1.1,9.05,3.7,15,9.12,21,4.84,5.4,8.6,11.88,13.88,16.75,12.26,11.31,15.6,25.4,15.06,41.23a103.33,103.33,0,0,0,.84,13.47c.42,4.42,2.57,5.24,5.9,2.33,6.11-5.33,8.78-12.69,11.51-20,6-15.87,13.42-30.78,27.08-41.58,19.93-15.76,41.91-8.43,58.18,3.41,1.7,1.23,1.89,2.65,1.65,4.56-.89,6.91-1.64,13.84-2.56,21.82-5.3-5.72-9.33-11.29-15.23-15-9.64-6.1-21.12-5.75-29,2.18-11.42,11.41-20.29,24.77-28,38.92-1.76,3.21-.23,4.84,1.79,7,12.77,13.52,13.18,25.85,1.67,40.9-1.81,2.36-5.64,4.39-3.06,8.14,1.63,2.37,2.79,6.27,5.89,6.28,2.7,0,3.72-3.73,5-6,9.43-16.33,12.58-33.58,7.33-52a33.12,33.12,0,0,1-1.09-15.61c.87-4.38,3.09-7.22,7.83-7.81,9.17-1.14,21.26,6.42,24,15.38,4.42,14.6,3.2,29.38-.15,43.84-5.25,22.72-11.69,45-27.51,63.33-6.07,7-9.91,15.53-12.66,24.55-2.82,9.23-8.89,11.48-17.49,7.13-5.1-2.58-9.54-6.17-14.41-11.2-.34,11.73.95,22.16-.74,32.42-2.05,12.48-4.36,25-17.46,31.37-3,1.48-2,4.33-2,6.66-.08,16.83-.86,33.71.14,50.48,1.68,28.48-17.47,50.58-40.78,60.83-19.68,8.64-40.36,11.2-61.55,11.8-4.93.14-5.35-1.76-5.77-6-1.11-11.26,1.78-19.73,11.27-27.1,12-9.33,22.61-20.48,33.82-30.84.72-.67,2.44-1.18,1.07-2.42C938.88,832.09,937.77,833.06,937,834ZM644.08,420.18c-1.47,14.14-1.94,27.68-4.44,40.83-4.22,22.2-7.45,44.32-6.31,67,.33,6.46.63,10.26,8.74,9.91,2.95-.13,9-1.24,10.07,3.3s1.9,9.88-3,13.81a27.46,27.46,0,0,0-6,7.62c-2.54,4.33-1.09,7.29,4,7.88a16.22,16.22,0,0,0,6.7-.42c16.58-5.45,33.71-3.39,50.66-4.13,6.62-.29,9.59,1.53,11.59,8,3,9.57,7.61,18.56,15.59,25.2,3.48,2.9,5.76,3.86,7.36-2.39,3.06-12,5.21-24.2,11.32-35.5,5.89-10.91-2.31-34.22-12.65-40.54a7.2,7.2,0,0,0-2.84-.83c-18.36-2.24-36.71-4.78-55.12-6.52-8.67-.82-15.28-3.77-19.49-11.56-4.5-8.32-5.67-17.54-7.53-26.59-.94-4.57,2.4-4.72,5.19-5.45,9.35-2.44,11-6.45,4.58-13.34s-9.89-15.48-13.2-24.15C647.73,428.46,647.36,424.08,644.08,420.18ZM939.64,569.27c-14.69-10.86-27.58-21.92-38.15-35.38-2.2-2.8-4.46-2.19-7.28-1.91-30.45,3-61,5.29-91.59,3.26-8.77-.58-17.25-2.71-26.5-5.56a151.48,151.48,0,0,0,16.93,25.39c10.56,12.8,22.94,21.63,40.73,19.35,6.56-.84,12.91.83,19.27,2.37,12.22,3,24,3.44,35.27-4.25,6.51-4.44,16.66-.86,20.65,6.45,2,3.73,4.5,6.52,8.41,8.07,4.39,1.73,6.82-.09,5.56-4.36-2.14-7.26.88-9.82,7.5-10.63C933.08,571.75,935.62,570.53,939.64,569.27Z"/><path class="cls-6" d="M781.05,784.83c-8.74-1.18-16.16-2.16-23.57-3.19a25.93,25.93,0,0,1-11.7-4.74c-3.54-2.57-3.49-6.62-3.27-10.26.18-3.14,3.21-4,6-4.86,13-4,26.4-2.95,39.61-2.48,22,.77,43.84,3.76,65.75,5.82,13.32,1.26,22,8.69,28.9,19,7.84,11.75,11.29,25,11.83,39a20.3,20.3,0,0,1-2.49,10.07c-14.7,29.38-44.23,46.35-77.79,43.16-24.21-2.3-48.1-6.94-70.68-16.65a111.1,111.1,0,0,1-19.55-11.16c-7.81-5.44-12.86-12.33-12.72-22.45.1-7.17-1.8-13.52-7.87-18.55-3.54-2.94-5.83-7.45-8.45-11.41-8.32-12.51-6-22.48,7-31,5.36-3.51,10.11-3.17,14.87,1.4,6.67,6.4,9,14.86,11.73,23.16,4,12.21,9.77,16.52,22.52,16.06a107.07,107.07,0,0,0,13.42-1.72c1.61-.27,4.21-.53,4-2.6C767.84,792.79,774.67,789.63,781.05,784.83Z"/><path class="cls-5" d="M151.8,600.7h-95c.26.62.6,1.19.89,1.79,7.93,16.1,2.43,29.19-14.5,34.45-5.21,1.62-2.43,4.45-.67,6.31a31.78,31.78,0,0,0,17.68,9.85c5.4.92,8.93,3.41,12,7.91a47.86,47.86,0,0,0,20.72,17.3c.81.36,1.55.8,2.39,1.11a18.13,18.13,0,0,0,1.74.55c1.85.46,3.41.29,4.36-1.73,3.79-8,12-13.17,14.13-22.29a9,9,0,0,1,5.12-6.67l1.77-.29-.72,1.43c-1.66,4.43-3.55,8.78-4.9,13.3-1.25,4.14,2.82,8.7,6.21,6.88s7.12-2.61,8.12-8.3c1.47-8.47,2.32-16.39-.27-24.75-2.12-6.83.06-10.15,5.39-11.54-.16,12.42-4.37,25.38,5.31,36.9a7.31,7.31,0,0,1,1.46,2.83c.61,2.19.11,4.53-1.27,7.24-.81,1.59-1.37,3.27-2.09,4.9a132,132,0,0,0-7.51,21.67c-2.64,10.53-5.08,21.8-16,28.53-5.69,3.49-11.2,3.91-17.22,3.85-1.6,0-3.4-.36-4,1.49-.48,1.45,1,2.24,2,3.06,6.38,5.15,7.85,12.49,7.71,19.93-.12,6.18.17,12.11,2.61,17.77,1.57,3.63-.26,5.72-3.07,6.9-3.51,1.47-5.13,8.13-10.84,3.86a7.46,7.46,0,0,0-9.48.69c-3.88,3.48-3.85,8.37-2.27,13.23,1,3,1.22,6.25,5.95,5.46a4.24,4.24,0,0,1,2.76.25c1.28.64,1.2,2.23-.18,4.35s-2.73,3.88-4,5.87c-1.68,2.55-4.74,5.2-1.51,8.27a8.55,8.55,0,0,0,10.34,1.15c4-2.16,7-5.59,9.78-9.13,4.23-5.42,8.53-4.82,13.32-.82,2.83,2.36,5.92,4.41,9,6.51,6,4.17,12.2,6.86,19.72,3.54,6.56-2.9,10.5.59,13.09,6.34a73.76,73.76,0,0,1,6,19.58c.45,3.07,2,5.21,3.75,7.59a29.46,29.46,0,0,0,6.92,6.54c10.41-3.59,22.12-7.21,35.43-10.82,0-.16,0-.26.06-.42Q154.05,729.25,151.8,600.7Z"/><path class="cls-2" d="M419,425.69c.79-2.06,1.51-3,3.7-3.11,11.78-.83,22.7.68,31,10.37,2,2.41,4.41,4.53,6.5,6.91,6.65,7.56,14.05,13.46,25,12.72a8.33,8.33,0,0,1,5.21,1.59c4.86,3.7,9.68,7.15,16.16,7.39,1.77.06,3.8,1.24,3.39,3.56-.35,2-2.59,1.74-3.92,1.73-4.85,0-9.86,2-14.52-1.41a5,5,0,0,0-6.54.31c-.56,2.82,2,2.73,3.39,3.45,4.63,2.47,8.8,5.86,9.88,10.82,1.58,7.22,4.82,12.06,11.8,15a8,8,0,0,1,4.08,10.86c-4.19,8.1-1.27,15.61.86,22.88,1.95,6.63-1,7.94-5.82,7.12-6.61-1.14-8.43,2.29-8.91,7.55a90.28,90.28,0,0,1-12.29,37.42h97.25V361q-38.61,1.44-73.58,1.41c-34,0-65.5-1-94.61-2.69q-3.74,15.93-7.06,32.84-3.89,19.92-7.16,41.95C410,436.86,415.78,434,419,425.69Z"/><path class="cls-2" d="M585.12,600.7H473.87c-6.47,7.75-13.55,15.13-20.8,22.42s-14.67,14.46-21.86,21.82c-9.89,10.12-21.65,16.95-34.23,22.47a1095.8,1095.8,0,0,0,24.47,151.16c47.22-4.75,101.3-8.77,163.25-11.72l.47,9.92V600.7Z"/></svg>